<svg xmlns="http://www.w3.org/2000/svg" viewBox="0 0 1600 900" role="img" aria-labelledby="title desc">
  <title id="title">Urban forest digital twin visual</title>
  <desc id="desc">Dark environmental graph with nodes suggesting urban forest twin modeling.</desc>
  <defs>
    <radialGradient id="glow" cx="50%" cy="45%" r="50%">
      <stop offset="0%" stop-color="#d6e0d5" stop-opacity="0.95"/>
      <stop offset="50%" stop-color="#7d8f81" stop-opacity="0.28"/>
      <stop offset="100%" stop-color="#101214" stop-opacity="0"/>
    </radialGradient>
  </defs>
  <rect width="1600" height="900" fill="#101214"/>
  <rect x="180" y="140" width="1240" height="620" rx="36" fill="#15181a" stroke="#dbe6da" stroke-opacity="0.08"/>
  <circle cx="800" cy="450" r="260" fill="url(#glow)"/>
  <g stroke="#dbe6da" stroke-opacity="0.38" stroke-width="2">
    <path d="M620 370l120 60 110-80 100 110 120-30"/>
    <path d="M580 520l160-90 120 110 150-40"/>
    <path d="M700 300l100 130 90-40 130 90"/>
  </g>
  <g fill="#eef4ee">
    <circle cx="620" cy="370" r="8"/>
    <circle cx="740" cy="430" r="8"/>
    <circle cx="850" cy="350" r="8"/>
    <circle cx="950" cy="460" r="8"/>
    <circle cx="1070" cy="430" r="8"/>
    <circle cx="580" cy="520" r="8"/>
    <circle cx="860" cy="540" r="8"/>
    <circle cx="1010" cy="500" r="8"/>
  </g>
  <text x="220" y="792" font-family="Inter, Arial, sans-serif" font-size="60" font-weight="800" fill="#eef4ee">Urban Forest Digital Twin</text>
</svg>